<svg width="33" height="33" viewBox="0 0 33 33" fill="none" xmlns="http://www.w3.org/2000/svg">
<path d="M11 16.0001H11.015M17 16.0001H17.015M23 16.0001H23.015M10.85 28.0001C13.7129 29.4687 17.0061 29.8664 20.1363 29.1217C23.2665 28.377 26.0278 26.5388 27.9226 23.9383C29.8174 21.3379 30.7211 18.1461 30.4709 14.9383C30.2206 11.7305 28.8329 8.71752 26.5577 6.44236C24.2825 4.16719 21.2696 2.77945 18.0618 2.52919C14.8539 2.27894 11.6622 3.18264 9.06173 5.07744C6.46125 6.97224 4.62304 9.73354 3.87833 12.8637C3.13363 15.9939 3.53141 19.2872 5 22.1501L2 31.0001L10.85 28.0001Z" stroke="black" stroke-width="3" stroke-linecap="round" stroke-linejoin="round"/>
</svg>
