<svg width="65" height="65" viewBox="0 0 65 65" fill="none" xmlns="http://www.w3.org/2000/svg">
<path d="M44.1673 20.8333H26.6673C25.1202 20.8333 23.6365 21.4478 22.5425 22.5418C21.4486 23.6358 20.834 25.1195 20.834 26.6666C20.834 28.2137 21.4486 29.6974 22.5425 30.7914C23.6365 31.8853 25.1202 32.4999 26.6673 32.4999H38.334C39.8811 32.4999 41.3648 33.1145 42.4588 34.2085C43.5527 35.3024 44.1673 36.7862 44.1673 38.3333C44.1673 39.8803 43.5527 41.3641 42.4588 42.458C41.3648 43.552 39.8811 44.1666 38.334 44.1666H20.834M32.5006 49.9999V14.9999M61.6673 32.4999C61.6673 48.6082 48.609 61.6666 32.5006 61.6666C16.3923 61.6666 3.33398 48.6082 3.33398 32.4999C3.33398 16.3916 16.3923 3.33325 32.5006 3.33325C48.609 3.33325 61.6673 16.3916 61.6673 32.4999Z" stroke="black" stroke-width="5.83333" stroke-linecap="round" stroke-linejoin="round"/>
</svg>
