<svg width="32" height="34" viewBox="0 0 32 34" fill="none" xmlns="http://www.w3.org/2000/svg">
<path d="M16.329 2H15.669C14.8734 2 14.1103 2.31607 13.5477 2.87868C12.9851 3.44129 12.669 4.20435 12.669 5V5.27C12.6685 5.79609 12.5296 6.31278 12.2663 6.76826C12.0031 7.22373 11.6246 7.60196 11.169 7.865L10.524 8.24C10.068 8.5033 9.55064 8.64192 9.02403 8.64192C8.49742 8.64192 7.98008 8.5033 7.52403 8.24L7.29903 8.12C6.61062 7.72289 5.79278 7.61517 5.02503 7.82046C4.25728 8.02576 3.60235 8.5273 3.20403 9.215L2.87403 9.785C2.47692 10.4734 2.36919 11.2912 2.57449 12.059C2.77978 12.8268 3.28133 13.4817 3.96903 13.88L4.19403 14.03C4.64744 14.2918 5.02446 14.6676 5.2876 15.1202C5.55075 15.5729 5.69087 16.0865 5.69403 16.61V17.375C5.69613 17.9036 5.5585 18.4234 5.29509 18.8818C5.03168 19.3401 4.65184 19.7207 4.19403 19.985L3.96903 20.12C3.28133 20.5183 2.77978 21.1732 2.57449 21.941C2.36919 22.7088 2.47692 23.5266 2.87403 24.215L3.20403 24.785C3.60235 25.4727 4.25728 25.9742 5.02503 26.1795C5.79278 26.3848 6.61062 26.2771 7.29903 25.88L7.52403 25.76C7.98008 25.4967 8.49742 25.3581 9.02403 25.3581C9.55064 25.3581 10.068 25.4967 10.524 25.76L11.169 26.135C11.6246 26.398 12.0031 26.7763 12.2663 27.2317C12.5296 27.6872 12.6685 28.2039 12.669 28.73V29C12.669 29.7956 12.9851 30.5587 13.5477 31.1213C14.1103 31.6839 14.8734 32 15.669 32H16.329C17.1247 32 17.8877 31.6839 18.4503 31.1213C19.013 30.5587 19.329 29.7956 19.329 29V28.73C19.3296 28.2039 19.4684 27.6872 19.7317 27.2317C19.995 26.7763 20.3734 26.398 20.829 26.135L21.474 25.76C21.9301 25.4967 22.4474 25.3581 22.974 25.3581C23.5006 25.3581 24.018 25.4967 24.474 25.76L24.699 25.88C25.3874 26.2771 26.2053 26.3848 26.973 26.1795C27.7408 25.9742 28.3957 25.4727 28.794 24.785L29.124 24.2C29.5211 23.5116 29.6289 22.6938 29.4236 21.926C29.2183 21.1582 28.7167 20.5033 28.029 20.105L27.804 19.985C27.3462 19.7207 26.9664 19.3401 26.703 18.8818C26.4396 18.4234 26.3019 17.9036 26.304 17.375V16.625C26.3019 16.0964 26.4396 15.5766 26.703 15.1182C26.9664 14.6599 27.3462 14.2793 27.804 14.015L28.029 13.88C28.7167 13.4817 29.2183 12.8268 29.4236 12.059C29.6289 11.2912 29.5211 10.4734 29.124 9.785L28.794 9.215C28.3957 8.5273 27.7408 8.02576 26.973 7.82046C26.2053 7.61517 25.3874 7.72289 24.699 8.12L24.474 8.24C24.018 8.5033 23.5006 8.64192 22.974 8.64192C22.4474 8.64192 21.9301 8.5033 21.474 8.24L20.829 7.865C20.3734 7.60196 19.995 7.22373 19.7317 6.76826C19.4684 6.31278 19.3296 5.79609 19.329 5.27V5C19.329 4.20435 19.013 3.44129 18.4503 2.87868C17.8877 2.31607 17.1247 2 16.329 2Z" stroke="black" stroke-width="3" stroke-linecap="round" stroke-linejoin="round"/>
<path d="M15.999 21.5C18.4843 21.5 20.499 19.4853 20.499 17C20.499 14.5147 18.4843 12.5 15.999 12.5C13.5137 12.5 11.499 14.5147 11.499 17C11.499 19.4853 13.5137 21.5 15.999 21.5Z" stroke="black" stroke-width="3" stroke-linecap="round" stroke-linejoin="round"/>
</svg>
