<svg width="38" height="39" viewBox="0 0 38 39" fill="none" xmlns="http://www.w3.org/2000/svg">
<path d="M25.1667 1.4165V8.58317M34.125 18.8853V8.58317C34.125 7.63281 33.7475 6.72138 33.0755 6.04937C32.4035 5.37737 31.492 4.99984 30.5417 4.99984H5.45833C4.50797 4.99984 3.59654 5.37737 2.92453 6.04937C2.25253 6.72138 1.875 7.63281 1.875 8.58317V33.6665C1.875 34.6169 2.25253 35.5283 2.92453 36.2003C3.59654 36.8723 4.50797 37.2498 5.45833 37.2498H18.4479M35.9167 37.2498L32.5573 33.8905M1.875 15.7498H34.125M10.8333 1.4165V8.58317M34.125 30.0832C34.125 33.0517 31.7185 35.4582 28.75 35.4582C25.7815 35.4582 23.375 33.0517 23.375 30.0832C23.375 27.1146 25.7815 24.7082 28.75 24.7082C31.7185 24.7082 34.125 27.1146 34.125 30.0832Z" stroke="black" stroke-width="2.83333" stroke-linecap="round" stroke-linejoin="round"/>
</svg>
