<svg width="44" height="44" viewBox="0 0 44 44" fill="none" xmlns="http://www.w3.org/2000/svg">
<path d="M20.209 27.7126H23.7923C24.7427 27.7126 25.6541 27.335 26.3261 26.663C26.9981 25.991 27.3757 25.0796 27.3757 24.1292C27.3757 23.1789 26.9981 22.2674 26.3261 21.5954C25.6541 20.9234 24.7427 20.5459 23.7923 20.5459H18.4173C17.3423 20.5459 16.4465 20.9042 15.909 21.6209L5.87565 31.2959M13.0423 38.4626L15.909 35.9543C16.4465 35.2376 17.3423 34.8793 18.4173 34.8793H25.584C27.5548 34.8793 29.3465 34.1626 30.6007 32.7293L38.8423 24.8459C39.5337 24.1926 39.9372 23.2913 39.9641 22.3404C39.991 21.3895 39.639 20.4669 38.9857 19.7755C38.3323 19.0841 37.431 18.6806 36.4801 18.6537C35.5292 18.6269 34.6066 18.9788 33.9152 19.6322L26.3902 26.6197M4.08398 29.5042L14.834 40.2542M34.3633 16.9627C34.3633 19.8323 32.0371 22.1586 29.1675 22.1586C26.2979 22.1586 23.9717 19.8323 23.9717 16.9627C23.9717 14.0932 26.2979 11.7669 29.1675 11.7669C32.0371 11.7669 34.3633 14.0932 34.3633 16.9627ZM16.6257 9.7959C16.6257 12.7644 14.2192 15.1709 11.2507 15.1709C8.28212 15.1709 5.87565 12.7644 5.87565 9.7959C5.87565 6.82737 8.28212 4.4209 11.2507 4.4209C14.2192 4.4209 16.6257 6.82737 16.6257 9.7959Z" stroke="black" stroke-width="3.58333" stroke-linecap="round" stroke-linejoin="round"/>
</svg>
